{
  "accessors": [
    {
      "bufferView": 2,
      "componentType": 5126,
      "count": 1589,
      "max": [
        6.73597526550293,
        1.155685544013977,
        13.157139778137207
      ],
      "min": [
        -6.6934051513671875,
        -4.39288330078125,
        -8.784710884094238
      ],
      "type": "VEC3"
    },
    {
      "bufferView": 2,
      "byteOffset": 19068,
      "componentType": 5126,
      "count": 1589,
      "max": [
        1.0,
        0.9998559951782227,
        0.9981779456138611
      ],
      "min": [
        -1.0,
        -0.9998546838760376,
        -0.9998807907104492
      ],
      "type": "VEC3"
    },
    {
      "bufferView": 1,
      "componentType": 5126,
      "count": 1589,
      "max": [
        0.9996539354324341,
        1.0883169174194336
      ],
      "min": [
        0.12727555632591248,
        0.007129423785954714
      ],
      "type": "VEC2"
    },
    {
      "bufferView": 0,
      "componentType": 5125,
      "count": 2370,
      "type": "SCALAR"
    }
  ],
  "asset": {
    "extras": {
      "author": "DemiGod1410 (https://sketchfab.com/DemiGod1410)",
      "license": "CC-BY-4.0 (http://creativecommons.org/licenses/by/4.0/)",
      "source": "https://sketchfab.com/3d-models/anglewing-7e60f49b0de346e1b5cb7a7ac7264c38",
      "title": "AngleWing"
    },
    "generator": "Sketchfab-16.73.0",
    "version": "2.0"
  },
  "bufferViews": [
    {
      "buffer": 0,
      "byteLength": 9480,
      "name": "floatBufferViews",
      "target": 34963
    },
    {
      "buffer": 0,
      "byteLength": 12712,
      "byteOffset": 9480,
      "byteStride": 8,
      "name": "floatBufferViews",
      "target": 34962
    },
    {
      "buffer": 0,
      "byteLength": 38136,
      "byteOffset": 22192,
      "byteStride": 12,
      "name": "floatBufferViews",
      "target": 34962
    }
  ],
  "buffers": [
    {
      "byteLength": 60328,
      "uri": "angelwing.bin"
    }
  ],
  "images": [
    {
      "uri": "textures/Texture_baseColor.png"
    }
  ],
  "materials": [
    {
      "doubleSided": true,
      "name": "Texture",
      "pbrMetallicRoughness": {
        "baseColorTexture": {
          "index": 0
        }
      }
    }
  ],
  "meshes": [
    {
      "name": "AngleWing_Texture_0",
      "primitives": [
        {
          "attributes": {
            "NORMAL": 1,
            "POSITION": 0,
            "TEXCOORD_0": 2
          },
          "indices": 3,
          "material": 0,
          "mode": 4
        }
      ]
    }
  ],
  "nodes": [
    {
      "children": [
        1
      ],
      "matrix": [
        1.0,
        0.0,
        0.0,
        0.0,
        0.0,
        2.220446049250313e-16,
        -1.0,
        0.0,
        0.0,
        1.0,
        2.220446049250313e-16,
        0.0,
        0.0,
        0.0,
        0.0,
        1.0
      ],
      "name": "Sketchfab_model"
    },
    {
      "children": [
        2
      ],
      "matrix": [
        0.009999999776482582,
        0.0,
        0.0,
        0.0,
        0.0,
        0.0,
        0.009999999776482582,
        0.0,
        0.0,
        -0.009999999776482582,
        0.0,
        0.0,
        0.0,
        0.0,
        0.0,
        1.0
      ],
      "name": "272d891dbef94c338d44c0d21982f64f.fbx"
    },
    {
      "children": [
        3
      ],
      "name": "RootNode"
    },
    {
      "children": [
        4
      ],
      "matrix": [
        102.0436782836914,
        0.0,
        0.0,
        0.0,
        0.0,
        -102.03166861104539,
        -1.670891286627355,
        0.0,
        0.0,
        1.77121006397355,
        -108.15755623016909,
        0.0,
        103.53285217285156,
        1189.1834716796875,
        1860.5865478515625,
        1.0
      ],
      "name": "AngleWing"
    },
    {
      "mesh": 0,
      "name": "AngleWing_Texture_0"
    }
  ],
  "samplers": [
    {
      "magFilter": 9729,
      "minFilter": 9987,
      "wrapS": 10497,
      "wrapT": 10497
    }
  ],
  "scene": 0,
  "scenes": [
    {
      "name": "Sketchfab_Scene",
      "nodes": [
        0
      ]
    }
  ],
  "textures": [
    {
      "sampler": 0,
      "source": 0
    }
  ]
}
